<svg xmlns="http://www.w3.org/2000/svg" viewBox="0 0 1920 1200" width="1920" height="1200" preserveAspectRatio="xMidYMid slice" style="width: 100%; height: 100%; transform: translate3d(0px, 0px, 0px);"><defs><clipPath id="_lottie_element_2"><rect width="1920" height="1200" x="0" y="0"></rect></clipPath></defs><g clip-path="url(#_lottie_element_2)"><g transform="matrix(1,0,0,1,960,600)" opacity="1" style="display: block;"><g opacity="1" transform="matrix(1,0,0,1,0,0)"><path fill="rgb(72,58,255)" fill-opacity="1" d=" M960,-600 C960,-600 960,600 960,600 C960,600 -960,600 -960,600 C-960,600 -960,-600 -960,-600 C-960,-600 960,-600 960,-600z"></path></g></g><g transform="matrix(1,0,0,1,1546.091552734375,-55.72674560546875)" opacity="1" style="display: block;"><g opacity="1" transform="matrix(1,0,0,1,0,0)"><path fill="rgb(255,181,115)" fill-opacity="1" d=" M0,-259 C143.04200744628906,-259 259,-143.04200744628906 259,0 C259,60.50899887084961 238.25,116.1709976196289 203.47799682617188,160.25999450683594 C156.0489959716797,220.39599609375 82.53299713134766,259 0,259 C-84.93199920654297,259 -160.31500244140625,218.11900329589844 -207.5469970703125,154.96200561523438 C-239.86300659179688,111.75 -259,58.11000061035156 -259,0 C-259,-143.04200744628906 -143.04200744628906,-259 0,-259z"></path></g></g><g transform="matrix(1.190911889076233,0,0,1.190911889076233,604.5,1056.5)" opacity="1" style="display: block;"><g opacity="1" transform="matrix(1,0,0,1,0,0)"><path fill="rgb(56,223,220)" fill-opacity="1" d=" M0,-35.5 C19.592449188232422,-35.5 35.5,-19.592449188232422 35.5,0 C35.5,19.592449188232422 19.592449188232422,35.5 0,35.5 C-19.592449188232422,35.5 -35.5,19.592449188232422 -35.5,0 C-35.5,-19.592449188232422 -19.592449188232422,-35.5 0,-35.5z"></path></g></g><g transform="matrix(1,0,0,1,124.0003662109375,1282.4541015625)" opacity="1" style="display: block;"><g opacity="1" transform="matrix(1,0,0,1,0,0)"><path fill="rgb(255,114,88)" fill-opacity="1" d=" M0,-433 C103.92500305175781,-433 199.2989959716797,-396.38800048828125 273.927001953125,-335.35699462890625 C371.02301025390625,-255.95199584960938 433,-135.21400451660156 433,0 C433,239.13900756835938 239.13900756835938,433 0,433 C-239.13900756835938,433 -433,239.13900756835938 -433,0 C-433,-239.13900756835938 -239.13900756835938,-433 0,-433z"></path></g></g><g transform="matrix(1,0,0,1,1861.5,1261.5)" opacity="1" style="display: block;"><g opacity="1" transform="matrix(1,0,0,1,0,0)"><path stroke-linecap="butt" stroke-linejoin="miter" fill-opacity="0" stroke-miterlimit="4" stroke="rgb(255,255,255)" stroke-opacity="1" stroke-width="10" d=" M-423.8389892578125,-199.74899291992188 C-348.802001953125,-358.5320129394531 -187.13800048828125,-468.5 0,-468.5 C0,-468.5 0,-468.5 0,-468.5 C99.90399932861328,-468.5 192.54800415039062,-437.15899658203125 268.62701416015625,-383.7820129394531"></path></g></g><g transform="matrix(1.1272746324539185,0,0,1.1272746324539185,1698.5,613.5)" opacity="1" style="display: block;"><g opacity="1" transform="matrix(1,0,0,1,0,0)"><path stroke-linecap="butt" stroke-linejoin="miter" fill-opacity="0" stroke-miterlimit="4" stroke="rgb(0,0,0)" stroke-opacity="1" stroke-width="40" d=" M0,-44.5 C24.55954933166504,-44.5 44.5,-24.55954933166504 44.5,0 C44.5,24.55954933166504 24.55954933166504,44.5 0,44.5 C-24.55954933166504,44.5 -44.5,24.55954933166504 -44.5,0 C-44.5,-24.55954933166504 -24.55954933166504,-44.5 0,-44.5z"></path></g></g></g></svg>